<svg width="667" height="667" viewBox="0 0 667 667" fill="none" xmlns="http://www.w3.org/2000/svg">
<mask id="mask0_1_402" style="mask-type:luminance" maskUnits="userSpaceOnUse" x="0" y="-1" width="667" height="668">
<path d="M0 0H666.667V666.667H0V0Z" fill="white"/>
</mask>
<g mask="url(#mask0_1_402)">
<path d="M109.088 429.763C117.052 472.112 154.312 504.247 198.938 504.247C243.563 504.247 280.823 472.112 288.786 429.763H109.088ZM198.938 538.124C129.847 538.124 73.6392 481.916 73.6392 412.826V395.887H324.236V412.826C324.236 481.916 268.027 538.124 198.938 538.124Z" fill="#1C1C1A"/>
<path d="M405.758 163.627V502.094C491.61 493.562 558.889 420.918 558.889 332.862C558.889 244.803 491.61 172.159 405.758 163.627ZM388.819 536.806H371.882V128.915H388.819C501.276 128.915 592.766 220.406 592.766 332.862C592.766 445.318 501.276 536.806 388.819 536.806Z" fill="#1C1C1A"/>
<path d="M263.703 159.293C249.119 159.293 237.253 171.157 237.253 185.743C237.253 200.327 249.119 212.191 263.703 212.191C278.288 212.191 290.153 200.327 290.153 185.743C290.153 171.157 278.288 159.293 263.703 159.293ZM263.703 239.909C233.836 239.909 209.536 215.611 209.536 185.743C209.536 155.877 233.836 131.575 263.703 131.575C293.572 131.575 317.871 155.877 317.871 185.743C317.871 215.611 293.572 239.909 263.703 239.909Z" fill="#1C1C1A"/>
</g>
</svg>
