<svg width="685" height="390" viewBox="0 0 685 390" fill="none" xmlns="http://www.w3.org/2000/svg">
<g clip-path="url(#clip0_18_2)">
<mask id="mask0_18_2" style="mask-type:luminance" maskUnits="userSpaceOnUse" x="0" y="0" width="685" height="390">
<path d="M0 6.10352e-05H684.667V389.213H0V6.10352e-05Z" fill="white"/>
</mask>
<g mask="url(#mask0_18_2)">
<path d="M334.701 101.247C332.446 101.247 330.513 100.445 328.909 98.8379C327.302 97.2326 326.499 95.3366 326.499 93.1486C326.499 90.9619 327.302 89.0486 328.909 87.4086C330.513 85.7686 332.446 84.9472 334.701 84.9472C336.887 84.9472 338.783 85.7686 340.39 87.4086C341.995 89.0486 342.799 90.9619 342.799 93.1486C342.799 95.3366 341.995 97.2326 340.39 98.8379C338.783 100.445 336.887 101.247 334.701 101.247ZM328.038 159.679V107.398H341.262V159.679C341.262 167.197 339.431 172.681 335.777 176.133C332.121 179.582 326.499 181.069 318.914 180.591V167.881C322.057 168.085 324.363 167.538 325.834 166.239C327.302 164.941 328.038 162.754 328.038 159.679Z" fill="#231F20"/>
<path d="M364.325 128.207H390.466C389.713 124.722 388.158 122.126 385.801 120.417C383.442 118.709 380.76 117.854 377.753 117.854C374.201 117.854 371.26 118.761 368.938 120.57C366.613 122.382 365.077 124.927 364.325 128.207ZM364.53 138.458C366.305 144.883 371.125 148.095 378.984 148.095C384.041 148.095 387.868 146.387 390.466 142.97L401.126 149.121C396.069 156.434 388.621 160.089 378.78 160.089C370.304 160.089 363.504 157.526 358.378 152.401C353.253 147.275 350.69 140.817 350.69 133.026C350.69 125.303 353.22 118.863 358.277 113.702C363.333 108.543 369.825 105.962 377.753 105.962C385.272 105.962 391.473 108.561 396.36 113.753C401.245 118.947 403.689 125.373 403.689 133.026C403.689 134.734 403.518 136.546 403.177 138.458H364.53Z" fill="#231F20"/>
<path d="M441.414 105.962C447.017 105.962 451.647 107.842 455.305 111.601C458.959 115.36 460.789 120.554 460.789 127.182V158.654H447.563V128.822C447.563 125.406 446.641 122.792 444.797 120.98C442.951 119.17 440.491 118.264 437.415 118.264C433.998 118.264 431.265 119.325 429.214 121.441C427.165 123.561 426.139 126.738 426.139 130.976V158.654H412.915V86.8956H426.139V113.138C429.35 108.356 434.443 105.962 441.414 105.962Z" fill="#231F20"/>
<path d="M490.019 116.213C491.25 112.933 493.283 110.473 496.119 108.833C498.954 107.193 502.115 106.372 505.601 106.372V121.135C501.569 120.656 497.965 121.477 494.786 123.595C491.609 125.713 490.019 129.233 490.019 134.153V158.653H476.795V107.397H490.019V116.213Z" fill="#231F20"/>
<path d="M551.85 107.398H565.074V158.654H551.85V152.912C548.637 157.698 543.546 160.09 536.575 160.09C530.97 160.09 526.341 158.21 522.686 154.451C519.027 150.692 517.202 145.499 517.202 138.87V107.398H530.425V137.228C530.425 140.647 531.347 143.26 533.193 145.071C535.038 146.883 537.498 147.787 540.573 147.787C543.99 147.787 546.725 146.728 548.774 144.61C550.825 142.492 551.85 139.314 551.85 135.075V107.398Z" fill="#231F20"/>
<path d="M304.961 266.445C307.661 269.145 311.061 270.495 315.161 270.495C319.261 270.495 322.645 269.145 325.309 266.445C327.976 263.747 329.308 260.279 329.308 256.04C329.308 251.803 327.976 248.336 325.309 245.635C322.645 242.936 319.261 241.585 315.161 241.585C311.061 241.585 307.661 242.936 304.961 245.635C302.261 248.336 300.912 251.803 300.912 256.04C300.912 260.279 302.261 263.747 304.961 266.445ZM329.308 209.909H342.533V281.668H329.308V275.62C325.413 280.609 319.877 283.104 312.702 283.104C305.797 283.104 299.904 280.489 295.018 275.261C290.13 270.033 287.688 263.627 287.688 256.04C287.688 248.455 290.13 242.047 295.018 236.819C299.904 231.591 305.797 228.977 312.702 228.977C319.877 228.977 325.413 231.472 329.308 236.46V209.909Z" fill="#231F20"/>
<path d="M365.353 251.222H391.494C390.741 247.736 389.186 245.14 386.829 243.431C384.47 241.723 381.787 240.868 378.781 240.868C375.229 240.868 372.287 241.775 369.966 243.584C367.641 245.396 366.105 247.942 365.353 251.222ZM365.558 261.472C367.333 267.898 372.153 271.11 380.011 271.11C385.069 271.11 388.895 269.402 391.494 265.984L402.154 272.135C397.097 279.448 389.649 283.103 379.807 283.103C371.331 283.103 364.531 280.54 359.406 275.415C354.281 270.29 351.718 263.831 351.718 256.04C351.718 248.318 354.247 241.878 359.305 236.716C364.361 231.558 370.853 228.976 378.781 228.976C386.298 228.976 392.501 231.575 397.387 236.767C402.273 241.962 404.717 248.387 404.717 256.04C404.717 257.748 404.546 259.56 404.205 261.472H365.558Z" fill="#231F20"/>
<path d="M425.915 244.969C425.915 246.337 426.819 247.448 428.632 248.301C430.441 249.156 432.645 249.908 435.243 250.556C437.839 251.206 440.435 252.026 443.033 253.016C445.631 254.008 447.835 255.665 449.645 257.988C451.456 260.312 452.363 263.216 452.363 266.701C452.363 271.965 450.397 276.014 446.468 278.849C442.537 281.685 437.633 283.104 431.757 283.104C421.232 283.104 414.057 279.038 410.229 270.904L421.712 264.446C423.213 268.89 426.563 271.11 431.757 271.11C436.472 271.11 438.831 269.641 438.831 266.701C438.831 265.336 437.925 264.225 436.113 263.37C434.303 262.516 432.099 261.748 429.501 261.064C426.904 260.381 424.308 259.526 421.712 258.501C419.113 257.476 416.909 255.853 415.1 253.632C413.287 251.412 412.383 248.626 412.383 245.276C412.383 240.22 414.244 236.24 417.969 233.334C421.693 230.43 426.324 228.977 431.86 228.977C436.027 228.977 439.82 229.917 443.239 231.796C446.656 233.677 449.355 236.358 451.337 239.844L440.061 245.994C438.42 242.509 435.687 240.766 431.86 240.766C430.151 240.766 428.733 241.142 427.605 241.893C426.479 242.646 425.915 243.672 425.915 244.969Z" fill="#231F20"/>
<path d="M460.869 230.412H474.093V281.668H460.869V230.412ZM467.431 224.261C465.243 224.261 463.347 223.459 461.741 221.852C460.135 220.247 459.333 218.351 459.333 216.163C459.333 213.976 460.135 212.063 461.741 210.423C463.347 208.783 465.243 207.963 467.431 207.963C469.685 207.963 471.616 208.783 473.224 210.423C474.828 212.063 475.632 213.976 475.632 216.163C475.632 218.351 474.828 220.247 473.224 221.852C471.616 223.459 469.685 224.261 467.431 224.261Z" fill="#231F20"/>
<path d="M500.798 265.317C503.497 267.949 506.931 269.264 511.101 269.264C515.267 269.264 518.702 267.949 521.402 265.317C524.102 262.688 525.453 259.321 525.453 255.22C525.453 251.189 524.102 247.857 521.402 245.225C518.702 242.594 515.267 241.278 511.101 241.278C506.931 241.278 503.497 242.594 500.798 245.225C498.097 247.857 496.749 251.189 496.749 255.22C496.749 259.321 498.097 262.688 500.798 265.317ZM525.453 230.412H538.369V279.208C538.369 287.134 535.754 293.182 530.526 297.352C525.298 301.521 518.993 303.606 511.613 303.606C506.078 303.606 501.207 302.545 497.005 300.428C492.802 298.309 489.574 295.2 487.317 291.1L498.594 284.641C501.191 289.424 505.666 291.817 512.022 291.817C516.19 291.817 519.471 290.722 521.865 288.536C524.255 286.349 525.453 283.238 525.453 279.208V273.672C521.557 278.866 516.089 281.464 509.05 281.464C501.805 281.464 495.741 278.918 490.855 273.825C485.966 268.736 483.523 262.533 483.523 255.22C483.523 247.977 485.985 241.79 490.906 236.665C495.826 231.54 501.874 228.977 509.05 228.977C516.089 228.977 521.557 231.574 525.453 236.768V230.412Z" fill="#231F20"/>
<path d="M579.706 228.977C585.309 228.977 589.94 230.857 593.597 234.615C597.252 238.374 599.081 243.569 599.081 250.197V281.669H585.856V251.837C585.856 248.421 584.933 245.806 583.089 243.994C581.244 242.185 578.784 241.278 575.708 241.278C572.29 241.278 569.557 242.339 567.506 244.455C565.457 246.575 564.432 249.753 564.432 253.99V281.669H551.208V230.413H564.432V236.153C567.642 231.37 572.736 228.977 579.706 228.977Z" fill="#231F20"/>
<path d="M624.133 244.969C624.133 246.337 625.037 247.448 626.85 248.301C628.66 249.156 630.864 249.908 633.461 250.556C636.057 251.206 638.653 252.026 641.252 253.016C643.849 254.008 646.053 255.665 647.864 257.988C649.674 260.312 650.581 263.216 650.581 266.701C650.581 271.965 648.616 276.014 644.686 278.849C640.756 281.685 635.852 283.104 629.976 283.104C619.45 283.104 612.276 279.038 608.448 270.904L619.93 264.446C621.432 268.89 624.781 271.11 629.976 271.11C634.69 271.11 637.049 269.641 637.049 266.701C637.049 265.336 636.144 264.225 634.332 263.37C632.521 262.516 630.317 261.748 627.72 261.064C625.122 260.381 622.526 259.526 619.93 258.501C617.332 257.476 615.128 255.853 613.318 253.632C611.505 251.412 610.601 248.626 610.601 245.276C610.601 240.22 612.462 236.24 616.188 233.334C619.912 230.43 624.542 228.977 630.078 228.977C634.245 228.977 638.038 229.917 641.457 231.796C644.874 233.677 647.573 236.358 649.556 239.844L638.28 245.994C636.638 242.509 633.905 240.766 630.078 240.766C628.369 240.766 626.952 241.142 625.824 241.893C624.697 242.646 624.133 243.672 624.133 244.969Z" fill="#231F20"/>
<path d="M48.8646 237.225C52.3126 255.56 68.4446 269.473 87.7646 269.473C107.085 269.473 123.217 255.56 126.665 237.225H48.8646ZM87.7646 284.14C57.8526 284.14 33.5166 259.805 33.5166 229.892V222.559H142.011V229.892C142.011 259.805 117.677 284.14 87.7646 284.14Z" fill="#231F20"/>
<path d="M177.306 122.003V268.54C214.475 264.847 243.603 233.396 243.603 195.272C243.603 157.147 214.475 125.697 177.306 122.003ZM169.972 283.569H162.639V106.975H169.972C218.66 106.975 258.27 146.585 258.27 195.272C258.27 243.96 218.66 283.569 169.972 283.569Z" fill="#231F20"/>
<path d="M115.804 120.126C109.49 120.126 104.354 125.264 104.354 131.578C104.354 137.892 109.49 143.029 115.804 143.029C122.119 143.029 127.256 137.892 127.256 131.578C127.256 125.264 122.119 120.126 115.804 120.126ZM115.804 155.029C102.874 155.029 92.3535 144.509 92.3535 131.578C92.3535 118.648 102.874 108.126 115.804 108.126C128.736 108.126 139.256 118.648 139.256 131.578C139.256 144.509 128.736 155.029 115.804 155.029Z" fill="#231F20"/>
</g>
</g>
<defs>
<clipPath id="clip0_18_2">
<rect width="684.667" height="389.213" fill="white"/>
</clipPath>
</defs>
</svg>
